<?xml version="1.0" encoding="utf-8"?>
<!-- Generator: Adobe Illustrator 14.0.0, SVG Export Plug-In  -->
<!DOCTYPE svg PUBLIC "-//W3C//DTD SVG 1.1//EN" "http://www.w3.org/Graphics/SVG/1.1/DTD/svg11.dtd" [
	<!ENTITY ns_flows "http://ns.adobe.com/Flows/1.0/">
]>
<svg version="1.1"
	 xmlns="http://www.w3.org/2000/svg" xmlns:xlink="http://www.w3.org/1999/xlink" xmlns:a="http://ns.adobe.com/AdobeSVGViewerExtensions/3.0/"
	 x="0px" y="0px" width="26px" height="26px" viewBox="0.065 0 26 26" enable-background="new 0.065 0 26 26" xml:space="preserve">
<defs>
</defs>
<path fill="#1072BA" d="M21.164,0c1.299-0.019,2.546,0.501,3.447,1.438c0.935,0.904,1.452,2.154,1.436,3.456V21.21
	c-0.007,2.699-2.189,4.887-4.883,4.892H18V15.99h3.375l0.506-3.942h-3.901V9.533c-0.037-0.508,0.104-1.014,0.4-1.426
	c0.413-0.359,0.955-0.532,1.498-0.476h2.109V4.069c-1.001-0.119-2.009-0.172-3.017-0.157c-1.363-0.068-2.696,0.425-3.689,1.363
	c-0.976,1.041-1.473,2.443-1.372,3.867v2.906h-3.396v3.942h3.396v10.112H4.883c-1.298,0.02-2.546-0.501-3.448-1.437
	C0.501,23.762-0.018,22.51,0,21.21V4.894c-0.018-1.302,0.5-2.552,1.435-3.456C2.336,0.502,3.585-0.017,4.883,0H21.164z"/>
</svg>
