<?xml version="1.0" encoding="utf-8"?>
<!-- Generator: Adobe Illustrator 14.0.0, SVG Export Plug-In  -->
<!DOCTYPE svg PUBLIC "-//W3C//DTD SVG 1.1//EN" "http://www.w3.org/Graphics/SVG/1.1/DTD/svg11.dtd" [
	<!ENTITY ns_flows "http://ns.adobe.com/Flows/1.0/">
]>
<svg version="1.1"
	 xmlns="http://www.w3.org/2000/svg" xmlns:xlink="http://www.w3.org/1999/xlink" xmlns:a="http://ns.adobe.com/AdobeSVGViewerExtensions/3.0/"
	 x="0px" y="0px" width="26px" height="26px" viewBox="0 -0.193 26 26" enable-background="new 0 -0.193 26 26"
	 xml:space="preserve">
<defs>
</defs>
<path id="RSS_1_" fill="#1072BA" d="M5.912,19.948c0.632,0.623,1.017,1.472,1.019,2.415c-0.002,0.941-0.387,1.789-1.017,2.41H5.912
	c-0.63,0.621-1.492,1.002-2.449,1.002s-1.817-0.381-2.447-1.002C0.387,24.152,0,23.305,0,22.363c0-0.943,0.387-1.793,1.016-2.415
	l0,0c0.631-0.62,1.49-1.005,2.447-1.005S5.281,19.328,5.912,19.948z M5.912,19.948L5.912,19.948c0.001,0,0.001,0,0.001,0H5.912z
	 M1.016,24.773L1.016,24.773c-0.001,0-0.001,0-0.001,0H1.016z M0.002,8.775v4.929c3.252,0.001,6.326,1.265,8.629,3.546
	c2.299,2.272,3.573,5.319,3.577,8.548h0.001v0.009h5.001c-0.004-4.693-1.933-8.946-5.049-12.034
	C9.043,10.688,4.748,8.778,0.002,8.775z M0.012,0v4.925c11.623,0.008,21.07,9.371,21.08,20.881h4.991
	c-0.003-7.113-2.926-13.56-7.649-18.236C13.709,2.896,7.2,0.003,0.012,0z"/>
</svg>
