<?xml version="1.0" encoding="utf-8"?>
<!-- Generator: Adobe Illustrator 14.0.0, SVG Export Plug-In  -->
<!DOCTYPE svg PUBLIC "-//W3C//DTD SVG 1.1//EN" "http://www.w3.org/Graphics/SVG/1.1/DTD/svg11.dtd" [
	<!ENTITY ns_flows "http://ns.adobe.com/Flows/1.0/">
]>
<svg version="1.1"
	 xmlns="http://www.w3.org/2000/svg" xmlns:xlink="http://www.w3.org/1999/xlink" xmlns:a="http://ns.adobe.com/AdobeSVGViewerExtensions/3.0/"
	 x="0px" y="0px" width="26px" height="26px" viewBox="0 0 26 26" enable-background="new 0 0 26 26" xml:space="preserve">
<defs>
</defs>
<path fill="#1072BA" d="M26.164,13.043c0,2.591-0.028,4.387-0.086,5.385c0.021,2.026-0.738,3.983-2.118,5.47
	c-1.49,1.376-3.453,2.134-5.485,2.114c-0.997,0.055-2.799,0.084-5.403,0.084c-2.606,0-4.406-0.029-5.403-0.084
	c-2.032,0.02-3.994-0.738-5.487-2.114c-1.378-1.488-2.135-3.443-2.119-5.47C0.021,17.43,0,15.634,0,13.043s0.028-4.387,0.085-5.386
	c-0.019-2.026,0.74-3.983,2.118-5.471c1.493-1.367,3.45-2.118,5.477-2.102C8.683,0.027,10.482,0,13.082,0
	c2.598,0,4.398,0.027,5.402,0.084c2.032-0.017,3.994,0.739,5.487,2.112c1.379,1.488,2.136,3.445,2.117,5.471
	C26.138,8.66,26.164,10.452,26.164,13.043z M14.384,2.334H9.978L8.315,2.387c-0.59,0.018-1.176,0.074-1.758,0.168
	C6.142,2.625,5.734,2.73,5.338,2.873c-1.124,0.46-2.01,1.356-2.457,2.482C2.737,5.748,2.631,6.155,2.563,6.569
	c-0.092,0.569-0.148,1.145-0.17,1.721c0,0.686,0,1.235,0,1.637s0,1.057,0,1.795c0,0.739,0,1.225,0,1.299c0,0.074,0,0.517,0,1.298
	c0,0.781,0,1.385,0,1.796c0,0.413,0,0.961,0,1.637c0.019,0.589,0.077,1.172,0.17,1.753c0.068,0.415,0.174,0.821,0.319,1.216
	c0.453,1.131,1.354,2.029,2.489,2.481c0.396,0.141,0.803,0.248,1.218,0.316c0.57,0.097,1.148,0.157,1.727,0.18h1.641h6.197h1.643
	c0.589-0.018,1.176-0.073,1.759-0.169c0.414-0.069,0.82-0.175,1.218-0.317c1.134-0.452,2.035-1.349,2.489-2.481
	c0.142-0.396,0.248-0.801,0.319-1.215c0.1-0.568,0.162-1.143,0.19-1.722c0-0.705,0-1.249,0-1.636c0-0.388,0-0.985,0-1.796
	c0-0.792,0-1.225,0-1.299s0-0.507,0-1.299c0-0.792,0-1.384,0-1.795s0-0.95,0-1.636c-0.021-0.588-0.075-1.174-0.171-1.753
	c-0.07-0.413-0.176-0.82-0.317-1.215c-0.456-1.131-1.354-2.029-2.489-2.482c-0.396-0.143-0.804-0.249-1.217-0.317
	c-0.572-0.096-1.15-0.156-1.729-0.179h-1.642h-1.801L14.384,2.334z M17.849,8.291c1.281,1.243,1.992,2.959,1.962,4.742
	c0.018,3.681-2.963,6.677-6.655,6.697c-0.021,0-0.042,0-0.063,0c-3.691,0.016-6.698-2.952-6.716-6.633c0-0.017,0-0.035,0-0.053
	c-0.012-3.681,2.971-6.674,6.662-6.685c0.014,0,0.029,0,0.043,0C14.87,6.317,16.595,7.018,17.849,8.291z M16.175,16.106
	c1.702-1.693,1.705-4.442,0.007-6.139c-0.002-0.001-0.004-0.005-0.007-0.008c-0.813-0.828-1.931-1.286-3.093-1.267
	c-2.404-0.005-4.358,1.932-4.364,4.33c0,0.007,0,0.014,0,0.021c-0.006,2.397,1.938,4.345,4.344,4.351c0.006,0,0.014,0,0.021,0
	c1.159,0.014,2.272-0.45,3.081-1.278L16.175,16.106z M21.175,4.974c0.613,0.603,0.616,1.586,0.012,2.196
	c-0.004,0.004-0.009,0.007-0.012,0.011c-0.615,0.608-1.607,0.602-2.218-0.011c-0.274-0.28-0.438-0.652-0.45-1.044
	c-0.023-0.863,0.661-1.581,1.526-1.603C20.46,4.512,20.872,4.675,21.175,4.974z"/>
</svg>
