<?xml version="1.0" encoding="utf-8"?>
<!-- Generator: Adobe Illustrator 14.0.0, SVG Export Plug-In  -->
<!DOCTYPE svg PUBLIC "-//W3C//DTD SVG 1.1//EN" "http://www.w3.org/Graphics/SVG/1.1/DTD/svg11.dtd" [
	<!ENTITY ns_flows "http://ns.adobe.com/Flows/1.0/">
]>
<svg version="1.1"
	 xmlns="http://www.w3.org/2000/svg" xmlns:xlink="http://www.w3.org/1999/xlink" xmlns:a="http://ns.adobe.com/AdobeSVGViewerExtensions/3.0/"
	 x="0px" y="0px" width="26px" height="26px" viewBox="0 -2.004 26 26" enable-background="new 0 -2.004 26 26"
	 xml:space="preserve">
<defs>
</defs>
<path fill="#1072BA" d="M25.672,2.657c-0.717,1.107-1.609,2.074-2.639,2.859c0,0.162,0,0.4,0,0.724
	c-0.002,1.504-0.208,3.001-0.617,4.444c-0.425,1.506-1.058,2.938-1.878,4.252c-0.832,1.347-1.847,2.561-3.009,3.604
	c-1.237,1.096-2.653,1.948-4.18,2.513c-1.69,0.635-3.473,0.952-5.269,0.939C5.213,22.012,2.403,21.146,0,19.5
	c0.423,0.045,0.848,0.067,1.273,0.063c2.375,0.03,4.687-0.803,6.541-2.362c-2.255-0.042-4.236-1.586-4.929-3.842
	c0.339,0.058,0.683,0.086,1.027,0.086c0.468,0.002,0.934-0.06,1.386-0.183c-1.204-0.233-2.29-0.91-3.061-1.91
	c-0.792-0.986-1.222-2.237-1.211-3.528V7.761c0.729,0.43,1.546,0.67,2.382,0.7C2.7,7.959,2.118,7.281,1.715,6.487
	c-0.441-0.8-0.677-1.708-0.688-2.632C1.02,2.872,1.268,1.907,1.746,1.06c1.329,1.686,2.98,3.062,4.847,4.035
	c1.879,1.021,3.946,1.604,6.059,1.705c-0.086-0.414-0.131-0.838-0.133-1.262c-0.024-1.473,0.533-2.891,1.541-3.917
	c2.063-2.164,5.404-2.161,7.464,0.006c0.039,0.041,0.077,0.082,0.114,0.124c1.18-0.223,2.313-0.661,3.348-1.295
	c-0.383,1.288-1.21,2.377-2.32,3.054C23.701,3.384,24.715,3.096,25.672,2.657z"/>
</svg>
